<svg xmlns="http://www.w3.org/2000/svg" viewBox="0 0 125.39 125.39"><defs><style>.cls-1{fill:#2dffac;}.cls-2{fill:#20a56b;}.cls-3{fill:#e8b360;}.cls-4{fill:#fccf86;}.cls-5{fill:#ce9e51;}.cls-6{fill:#28231f;}.cls-7{fill:#ffc866;}.cls-8{fill:#fceee0;}.cls-9{fill:#fcddb1;}.cls-10{fill:#1c1c1c;}.cls-11{fill:#fff;}</style></defs><title>cheetah</title><g id="Layer_2" data-name="Layer 2"><g id="Layer_2-2" data-name="Layer 2"><g id="cheetah"><path class="cls-1" d="M125.39,62.69A62.68,62.68,0,0,1,94.5,116.74c-10.16-3.39-20.16.45-31.77.45s-21.69-3.5-31.84-.46a62.7,62.7,0,1,1,94.5-54Z"/><path class="cls-2" d="M97.84,45.29,68.69,73.61l10.57,38.24c9-1,7.6.59,15.21,4.9A62.8,62.8,0,0,0,123,45.31L110.41,32.77Z"/><path class="cls-3" d="M62.69,80.15c-17.56,0-31.8,15.82-31.8,35.34,0,.42,0,.84,0,1.26a62.3,62.3,0,0,0,13.56,6c5.21-3.18,11.88-2.93,18.22-2.93s12.65.25,18.2,2.94a62.49,62.49,0,0,0,13.58-6q0-.63,0-1.26C94.5,96,80.26,80.15,62.69,80.15Z"/><path class="cls-4" d="M62.69,125.39a62.84,62.84,0,0,0,18.2-2.68c-.54-18.59-8.48-26.25-18.2-26.25S45,104.12,44.5,122.71A62.83,62.83,0,0,0,62.69,125.39Z"/><path class="cls-5" d="M47.37,94.93a2.91,2.91,0,1,1-2.9-3.08A3,3,0,0,1,47.37,94.93Z"/><path class="cls-6" d="M47.33,92.46c-.23.71-1.26,1-2.32.66s-1.73-1.18-1.51-1.88,1.27-1,2.32-.66S47.55,91.76,47.33,92.46Z"/><path class="cls-6" d="M45.76,96.11c0,1,.61,1.89,1.36,1.89s1.37-.84,1.37-1.89-.61-1.88-1.37-1.88S45.76,95.07,45.76,96.11Z"/><path class="cls-6" d="M43.58,96.5a2.56,2.56,0,0,0-.68-.91,2.3,2.3,0,0,0-.17-1.34c-.42-1-1.31-1.49-2-1.19a1.69,1.69,0,0,0-.5,2.28,2.37,2.37,0,0,0,.68.91,2.3,2.3,0,0,0,.17,1.34c.41,1,1.31,1.49,2,1.19A1.69,1.69,0,0,0,43.58,96.5Z"/><path class="cls-5" d="M42.92,104a2.91,2.91,0,1,1-4-1.46A3,3,0,0,1,42.92,104Z"/><path class="cls-6" d="M41.78,101.82c.11.73-.69,1.46-1.79,1.63s-2.07-.29-2.18-1,.68-1.45,1.78-1.62S41.67,101.09,41.78,101.82Z"/><path class="cls-6" d="M42,105.79c.46.93,1.39,1.42,2.06,1.08a1.69,1.69,0,0,0,.38-2.3c-.46-.93-1.39-1.42-2.06-1.08A1.69,1.69,0,0,0,42,105.79Z"/><path class="cls-6" d="M40.23,107.11a2.58,2.58,0,0,0-1-.51,2.3,2.3,0,0,0-.75-1.12,1.7,1.7,0,0,0-2.33-.17,1.7,1.7,0,0,0,.57,2.26,2.31,2.31,0,0,0,1,.51,2.25,2.25,0,0,0,.76,1.12,1.68,1.68,0,0,0,2.32.17A1.69,1.69,0,0,0,40.23,107.11Z"/><path class="cls-5" d="M81.76,98.84a2.91,2.91,0,1,1,1.42-4A3,3,0,0,1,81.76,98.84Z"/><path class="cls-6" d="M83.93,97.68c-.72.12-1.46-.67-1.64-1.77s.27-2.08,1-2.2,1.47.67,1.65,1.77S84.66,97.56,83.93,97.68Z"/><path class="cls-6" d="M80,97.94a1.44,1.44,0,1,0,1.24,2.43c.93-.47,1.41-1.4,1.06-2.08A1.68,1.68,0,0,0,80,97.94Z"/><path class="cls-6" d="M78.63,96.18a2.43,2.43,0,0,0,.5-1,2.34,2.34,0,0,0,1.12-.77,1.44,1.44,0,1,0-2.11-1.73,2.4,2.4,0,0,0-.51,1,2.27,2.27,0,0,0-1.11.76,1.44,1.44,0,1,0,2.11,1.74Z"/><path class="cls-5" d="M86.1,102.38A2.91,2.91,0,1,1,83.89,106,3,3,0,0,1,86.1,102.38Z"/><path class="cls-6" d="M83.73,103.07c.74,0,1.3,1,1.25,2.07s-.69,2-1.42,2-1.3-1-1.25-2.07S83,103,83.73,103.07Z"/><path class="cls-6" d="M87.67,103.63c1-.27,1.66-1.08,1.46-1.81A1.7,1.7,0,0,0,87,101c-1,.28-1.66,1.09-1.46,1.82A1.68,1.68,0,0,0,87.67,103.63Z"/><path class="cls-6" d="M88.62,105.63a2.37,2.37,0,0,0-.7.9,2.32,2.32,0,0,0-1.25.51,1.44,1.44,0,1,0,1.71,2.14,2.45,2.45,0,0,0,.7-.9,2.29,2.29,0,0,0,1.25-.52,1.44,1.44,0,1,0-1.71-2.13Z"/><path class="cls-6" d="M41.48,115c-.38.79-1.7,1-2.94.34s-1.94-1.74-1.55-2.53,1.7-.94,2.94-.34S41.87,114.19,41.48,115Z"/><path class="cls-6" d="M73.06,94.13c0,.79-.87,1.42-2,1.42s-2-.63-2-1.42.87-1.41,2-1.41S73.06,93.35,73.06,94.13Z"/><path class="cls-6" d="M89.91,114.54c.26.5-.53,1.43-1.78,2.08s-2.46.76-2.72.26.53-1.43,1.78-2.08S89.65,114,89.91,114.54Z"/><path class="cls-6" d="M58.4,94.31c0,.87-1.17,1.58-2.61,1.58s-2.61-.71-2.61-1.58,1.17-1.59,2.61-1.59S58.4,93.43,58.4,94.31Z"/><path class="cls-6" d="M55.79,86.69c0,.51-1,.93-2.15.93s-2.16-.42-2.16-.93,1-.92,2.16-.92S55.79,86.18,55.79,86.69Z"/><path class="cls-7" d="M87.48,37.78s16.16-12,22.29-5.85S98.63,64.25,98.63,64.25Z"/><path class="cls-5" d="M87.48,42.55s11.82-8.76,16.3-4.27-8.15,23.63-8.15,23.63Z"/><path class="cls-7" d="M37.91,37.78s-16.16-12-22.29-5.85S26.76,64.25,26.76,64.25Z"/><path class="cls-5" d="M37.91,42.55s-11.82-8.76-16.3-4.27,8.15,23.63,8.15,23.63Z"/><path class="cls-7" d="M101.94,54c0,21.66-17.56,35.24-39.21,35.24S23.52,75.66,23.52,54c0-10.7,18.18-22.19,39.19-22.19S101.94,44.13,101.94,54Z"/><ellipse class="cls-8" cx="62.73" cy="83.65" rx="7.78" ry="7.58"/><path class="cls-6" d="M72,80c0,2.69-4.15,5.57-9.28,5.57S53.42,82.72,53.42,80s4.15-4.19,9.27-4.19S72,77.33,72,80Z"/><ellipse class="cls-8" cx="56.37" cy="77.49" rx="6.32" ry="5.61"/><ellipse class="cls-8" cx="69.02" cy="77.49" rx="6.32" ry="5.61"/><path class="cls-9" d="M54.28,55.94a6.48,6.48,0,1,1-6.48-6.48A6.48,6.48,0,0,1,54.28,55.94Z"/><path class="cls-9" d="M84.07,55.94a6.48,6.48,0,1,1-6.48-6.48A6.48,6.48,0,0,1,84.07,55.94Z"/><path class="cls-10" d="M51.35,55.94a3.55,3.55,0,1,1-3.55-3.55A3.55,3.55,0,0,1,51.35,55.94Z"/><path class="cls-10" d="M81.14,55.94a3.55,3.55,0,1,1-3.55-3.55A3.55,3.55,0,0,1,81.14,55.94Z"/><path class="cls-11" d="M50.85,54.7A1.82,1.82,0,1,1,49,52.89,1.82,1.82,0,0,1,50.85,54.7Z"/><rect class="cls-5" x="55.69" y="58.18" width="14.01" height="17.53" rx="6.2"/><path class="cls-11" d="M80.64,54.7a1.82,1.82,0,1,1-1.82-1.81A1.82,1.82,0,0,1,80.64,54.7Z"/><path class="cls-6" d="M70.51,71.62c0,2.69-3.5,6.33-7.82,6.33s-7.81-3.64-7.81-6.33,3.5,1.15,7.81,1.15S70.51,68.93,70.51,71.62Z"/><ellipse class="cls-6" cx="37.25" cy="66.16" rx="1.71" ry="2.36" transform="translate(-27.03 25.75) rotate(-28.46)"/><path class="cls-6" d="M35.42,74.42c.63,1.15,1.8,1.72,2.63,1.27s1-1.75.37-2.89-1.79-1.72-2.62-1.27S34.8,73.27,35.42,74.42Z"/><path class="cls-6" d="M27.69,63.94c.62,1.15,1.8,1.71,2.63,1.27s1-1.75.37-2.9-1.79-1.71-2.62-1.26S27.07,62.79,27.69,63.94Z"/><path class="cls-6" d="M48.6,43c-2,0-3.65,1-3.66,2.31s1.63,2.33,3.65,2.34,3.66-1,3.66-2.31S50.62,43,48.6,43Z"/><path class="cls-6" d="M37.21,43c-1.66,1.18-2.55,2.77-2,3.56s2.36.46,4-.71,2.56-2.78,2-3.56S38.87,41.8,37.21,43Z"/><path class="cls-6" d="M57,35.36c-2.27-.57-4.38.06-4.73,1.42s1.21,2.92,3.48,3.5,4.38-.06,4.73-1.42S59.29,35.94,57,35.36Z"/><path class="cls-6" d="M30.25,53.71c-.45,2.17.3,4.15,1.68,4.44s2.86-1.24,3.31-3.41-.3-4.15-1.68-4.43S30.7,51.54,30.25,53.71Z"/><ellipse class="cls-6" cx="88.14" cy="66.16" rx="2.36" ry="1.71" transform="translate(-12.03 112.12) rotate(-61.54)"/><path class="cls-6" d="M87,76.07c-.62,1.14-1.8,1.71-2.62,1.26s-1-1.74-.38-2.89,1.8-1.71,2.63-1.26S87.57,74.92,87,76.07Z"/><path class="cls-6" d="M97.7,63.94c-.63,1.15-1.8,1.71-2.63,1.27s-1-1.75-.37-2.9,1.79-1.71,2.62-1.26S98.32,62.79,97.7,63.94Z"/><path class="cls-6" d="M76.78,43c2,0,3.66,1,3.67,2.31s-1.63,2.33-3.65,2.34-3.66-1-3.66-2.31S74.77,43,76.78,43Z"/><path class="cls-6" d="M88.18,43c1.66,1.18,2.55,2.77,2,3.56s-2.35.46-4-.71-2.56-2.78-2-3.56S86.52,41.8,88.18,43Z"/><path class="cls-6" d="M68.36,35.36c2.27-.57,4.38.06,4.73,1.42s-1.22,2.92-3.48,3.5-4.38-.06-4.73-1.42S66.09,35.94,68.36,35.36Z"/><path class="cls-6" d="M95.14,53.71c.45,2.17-.31,4.15-1.68,4.44s-2.86-1.24-3.31-3.41.3-4.15,1.68-4.43S94.69,51.54,95.14,53.71Z"/></g></g></g></svg>