<svg xmlns="http://www.w3.org/2000/svg" viewBox="0 0 125.39 125.39"><defs><style>.cls-1{fill:#85ccd3;}.cls-2{fill:#6aa2a5;}.cls-3{fill:#b97342;}.cls-4{fill:#f4f6f5;}.cls-5{fill:#ff9cc7;}.cls-6{fill:#d180a6;}.cls-7{fill:#c6c6c6;}.cls-8{fill:#191919;}.cls-9{fill:#895633;}.cls-10{fill:#1c1c1c;}.cls-11{fill:#fff;}</style></defs><title>dog</title><g id="Layer_2" data-name="Layer 2"><g id="Layer_2-2" data-name="Layer 2"><g id="dog"><path class="cls-1" d="M125.39,62.69a62.67,62.67,0,0,1-31.1,54.17c-10-4-19.56-2.64-31.08-2.64-11.86,0-23.69-3-32.91,2.16a62.7,62.7,0,1,1,95.09-53.69Z"/><path class="cls-2" d="M125.39,62.69c0-1,0-2-.08-3.06l-14.72-15L86.53,57.86,63.21,83.13l19.31,31.26c4.94-1.39,6.34-.67,11.22,2.79A62.67,62.67,0,0,0,125.39,62.69Z"/><path class="cls-3" d="M62.21,76.8c-17.68,0-32,16.52-32,36.9q0,1.35.09,2.67a62.45,62.45,0,0,0,17.88,7.33c3.66-3.89,9-6.52,14-6.52,4.63,0,11,3.25,14,6.76a62.56,62.56,0,0,0,17.92-7c.08-1.08.13-2.17.13-3.27C94.23,93.32,79.89,76.8,62.21,76.8Z"/><path class="cls-4" d="M62.21,95.25c-8.63,0-15.63,5.86-15.63,18.45a31.62,31.62,0,0,0,1.58,10,63.39,63.39,0,0,0,28,.24,31.59,31.59,0,0,0,1.66-10.24C77.84,101.11,70.84,95.25,62.21,95.25Z"/><path class="cls-3" d="M38.43,37.32c-5,4.4-11.63,23.9-11.63,23.9S44.87,91,62.69,91s35.9-29.82,35.9-29.82S92,41.75,87,37.32C75.41,27.1,50.14,27.08,38.43,37.32Z"/><path class="cls-4" d="M66.32,60.29V49.57A3.63,3.63,0,0,0,62.69,46h0a3.62,3.62,0,0,0-3.62,3.62V60.29a3.59,3.59,0,0,1-2.67,3.46c-7.41,2-12.73,7.53-12.73,14a12,12,0,0,0,1.08,5C50.25,87.42,56.49,91,62.69,91s12.45-3.62,17.94-8.33a11.85,11.85,0,0,0,1.09-5c0-6.47-5.32-12-12.74-14A3.59,3.59,0,0,1,66.32,60.29Z"/><rect class="cls-5" x="57.8" y="75.19" width="9.78" height="17.39" rx="4.33"/><path class="cls-6" d="M62.69,90.41a.51.51,0,0,1-.51-.52V76.37a.52.52,0,0,1,1,0V89.89A.52.52,0,0,1,62.69,90.41Z"/><path class="cls-7" d="M62.69,79.09a6.61,6.61,0,1,1-6.61-6.61A6.61,6.61,0,0,1,62.69,79.09Z"/><path class="cls-7" d="M75.91,79.09a6.61,6.61,0,1,1-6.61-6.61A6.6,6.6,0,0,1,75.91,79.09Z"/><path class="cls-8" d="M69.4,72.93c0,2.4-3,6.16-6.71,6.16S56,75.33,56,72.93s3-2.53,6.7-2.53S69.4,70.53,69.4,72.93Z"/><circle class="cls-9" cx="49.73" cy="57.36" r="5.64"/><path class="cls-9" d="M81.3,57.36a5.65,5.65,0,1,1-5.64-5.65A5.65,5.65,0,0,1,81.3,57.36Z"/><circle class="cls-10" cx="49.73" cy="57.36" r="3.09"/><circle class="cls-10" cx="75.66" cy="57.36" r="3.09"/><path class="cls-11" d="M78.31,56.28a1.58,1.58,0,1,1-1.58-1.58A1.58,1.58,0,0,1,78.31,56.28Z"/><path class="cls-11" d="M52.41,56.28a1.58,1.58,0,1,1-1.58-1.58A1.58,1.58,0,0,1,52.41,56.28Z"/><path class="cls-9" d="M108.5,42.81a3.26,3.26,0,0,1,2.36,3.54c-.77,6.29-3.14,21.32-8.45,25.56s-14-19.22-18-30.54a3.27,3.27,0,0,1,4-4.22Z"/><path class="cls-9" d="M16.89,42.81a3.26,3.26,0,0,0-2.36,3.54c.77,6.29,3.13,21.32,8.45,25.56C28.15,76,37,52.69,41,41.37a3.27,3.27,0,0,0-4-4.22Z"/></g></g></g></svg>