<svg xmlns="http://www.w3.org/2000/svg" viewBox="0 0 125.39 125.39"><defs><style>.cls-1{fill:#b75e83;}.cls-2{fill:#914c6b;}.cls-3{fill:#ff991f;}.cls-4{fill:#cc7a1f;}.cls-5{fill:#fff9ee;}.cls-6{fill:#fcae59;}.cls-7{fill:#1c1c1c;}.cls-8{fill:#fff;}.cls-9{fill:#303030;}</style></defs><title>fox</title><g id="Layer_2" data-name="Layer 2"><g id="Layer_2-2" data-name="Layer 2"><g id="fox"><path class="cls-1" d="M125.39,62.69a62.66,62.66,0,0,1-30.95,54.08c-10.14-2.09-19-.46-30.56-.46s-25.34-5-33,.42a62.7,62.7,0,1,1,94.51-54Z"/><path class="cls-2" d="M125.39,62.69a62.93,62.93,0,0,0-1.24-12.44L97.37,23.46,74.08,45.21,64.65,81.14,84.3,113.31c4.85-1.45,6.08.62,10.11,3.48A62.66,62.66,0,0,0,125.39,62.69Z"/><path class="cls-3" d="M96,47c2-9.12,4.71-24.9,0-23.85-6.09,1.36-14.83,10.36-17.8,13.6a2.52,2.52,0,0,1-2.53.72,48.57,48.57,0,0,0-12.95-1.78A51,51,0,0,0,49.65,37.4a2.53,2.53,0,0,1-2.5-.72c-3-3.21-11.66-12.17-17.75-13.53-4.68-1-1.93,14.73,0,23.85a2.81,2.81,0,0,0,.08.31,5.83,5.83,0,0,1-.25,4,9.52,9.52,0,0,0-.83,3.78C28.43,74,43.78,88,62.72,88S97,74,97,55.1a8.79,8.79,0,0,0-.89-3.69,5.74,5.74,0,0,1-.24-4.12C95.91,47.2,95.94,47.1,96,47Z"/><path class="cls-4" d="M82,43.08a2,2,0,0,1-1-3.11c2.26-2.85,6.36-7.29,10.56-8.23,2.65-.59,1.1,8.34,0,13.5a2,2,0,0,1-3.16,1.13A19.59,19.59,0,0,0,82,43.08Z"/><path class="cls-4" d="M43.38,43.08a2,2,0,0,0,1-3.11c-2.26-2.85-6.36-7.29-10.56-8.23-2.65-.59-1.1,8.34,0,13.5A2,2,0,0,0,37,46.37,19.59,19.59,0,0,1,43.38,43.08Z"/><path class="cls-3" d="M62.69,75.89c-17.56,0-31.8,20.08-31.8,39.6,0,.42,0,.84,0,1.26a63.05,63.05,0,0,0,13.59,6c3.76-5.94,12.35-3,18.68-3s12.54-2.08,17.71,3a62.49,62.49,0,0,0,13.58-6q0-.63,0-1.26C94.5,96,80.26,75.89,62.69,75.89Z"/><path class="cls-5" d="M62.69,125.39a62.84,62.84,0,0,0,18.2-2.68c-.54-18.59-8.48-28-18.2-28s-17.65,9.37-18.19,28A62.83,62.83,0,0,0,62.69,125.39Z"/><path class="cls-5" d="M62.69,66.61c-11.93,0-21.6,6.24-21.6,13.93,0,.11,0,.22,0,.33a36.41,36.41,0,0,0,43.19,0c0-.13,0-.25,0-.38C84.3,72.85,74.63,66.61,62.69,66.61Z"/><circle class="cls-6" cx="49.67" cy="56.79" r="5.67"/><circle class="cls-6" cx="75.72" cy="56.79" r="5.67"/><path class="cls-7" d="M52.77,56.79a3.11,3.11,0,1,1-3.1-3.1A3.1,3.1,0,0,1,52.77,56.79Z"/><path class="cls-7" d="M78.83,56.79a3.11,3.11,0,1,1-3.11-3.1A3.11,3.11,0,0,1,78.83,56.79Z"/><path class="cls-8" d="M52.33,55.71a1.59,1.59,0,1,1-1.58-1.58A1.59,1.59,0,0,1,52.33,55.71Z"/><path class="cls-8" d="M78.39,55.71a1.59,1.59,0,1,1-1.59-1.58A1.59,1.59,0,0,1,78.39,55.71Z"/><path class="cls-9" d="M68.8,80.14a.29.29,0,0,0-.39-.14A15.18,15.18,0,0,1,63,81.31V78.23a4.05,4.05,0,1,0-.52,0v3.08A17.2,17.2,0,0,1,57,80a.3.3,0,0,0-.39.14.3.3,0,0,0,.15.39,16.88,16.88,0,0,0,6,1.37,15.49,15.49,0,0,0,5.91-1.37A.3.3,0,0,0,68.8,80.14Z"/></g></g></g></svg>