<svg xmlns="http://www.w3.org/2000/svg" viewBox="0 0 125.39 125.39"><defs><style>.cls-1{fill:#59d2d8;}.cls-2{fill:#40a0a0;}.cls-3{fill:#d9b382;}.cls-4{fill:#b2916d;}.cls-5{fill:#7f664e;}.cls-6{fill:#1c1c1c;}.cls-7{fill:#fff;}.cls-8{fill:#231307;}</style></defs><title>giraffe</title><g id="Layer_2" data-name="Layer 2"><g id="Layer_2-2" data-name="Layer 2"><g id="zhiraff"><path class="cls-1" d="M125.39,62.69A62.72,62.72,0,0,1,75.89,124c-3.45-3-8.67-4-13.2-4a22.15,22.15,0,0,0-13.24,4,62.7,62.7,0,1,1,75.94-61.3Z"/><path class="cls-2" d="M58.43,119.07l6.85,6.27a62.71,62.71,0,0,0,59.43-71.87l-27-27-7,7.64-19-19-.2,17,0,.29L54.45,15.3,51.88,28.36l2.9,23.74,14.65-8.25L66.11,61.67Z"/><path class="cls-3" d="M62.69,125.39A63.5,63.5,0,0,0,75.94,124L70.31,58.51c-.38-4.35-3.79-7.6-7.61-7.6h0c-3.83,0-7.23,3.25-7.61,7.6L49.45,124A63.47,63.47,0,0,0,62.69,125.39Z"/><ellipse class="cls-4" cx="62.69" cy="103.41" rx="9.97" ry="9.91"/><ellipse class="cls-5" cx="53.58" cy="22.98" rx="4.44" ry="7.83"/><ellipse class="cls-5" cx="71.81" cy="22.98" rx="4.44" ry="7.83"/><path class="cls-3" d="M73.94,82.83c12.52-24.58,12.72-29,5.77-38.59C77,40.49,74.41,34,75.25,30.8c1.67-6.33.2-10-3.23-10-2.88,0-4.86,2.55-4.44,7.82.37,4.59-3.18,5.17-4.89,5.17s-5.25-.58-4.88-5.17c.42-5.27-1.56-7.82-4.44-7.82-3.43,0-4.9,3.7-3.23,10C51,34,48.4,40.49,45.68,44.24c-7,9.6-6.75,14,5.76,38.59,2.08,4.08-2.51,10.27-2.51,15.57s10.3,12.81,13.76,12.81h0c3.46,0,13.77-7.52,13.77-12.81S71.87,86.91,73.94,82.83Z"/><path class="cls-4" d="M58.33,61.5C57.92,54,48.11,50.35,42.72,48.94c-3.54,7.06-1.6,13.61,8.72,33.89,1.75,3.43-1.22,8.37-2.21,13,.14-.16.29-.34.44-.55C57.17,84.47,58.9,71.92,58.33,61.5Z"/><path class="cls-4" d="M73.94,82.83C84.27,62.55,86.21,56,82.67,48.94c-5.39,1.41-15.2,5-15.61,12.56-.57,10.42,1.16,23,8.66,33.78.15.21.3.39.44.55C75.17,91.2,72.2,86.26,73.94,82.83Z"/><path class="cls-5" d="M51.88,57.92a4.78,4.78,0,1,1-4.78-4.77A4.77,4.77,0,0,1,51.88,57.92Z"/><circle class="cls-6" cx="47.1" cy="57.92" r="2.61"/><circle class="cls-7" cx="48.01" cy="57.01" r="1.34"/><circle class="cls-5" cx="78.29" cy="57.92" r="4.77"/><circle class="cls-6" cx="78.29" cy="57.92" r="2.61"/><path class="cls-7" d="M80.53,57a1.34,1.34,0,1,1-1.33-1.33A1.33,1.33,0,0,1,80.53,57Z"/><path class="cls-8" d="M58.56,92.66a5.89,5.89,0,0,1,1.88,3.41,5.89,5.89,0,0,1-3.77-1,5.88,5.88,0,0,1-1.89-3.42A5.89,5.89,0,0,1,58.56,92.66Z"/><path class="cls-8" d="M66.83,92.66A5.89,5.89,0,0,0,65,96.07a5.89,5.89,0,0,0,3.77-1,6,6,0,0,0,1.89-3.42A5.89,5.89,0,0,0,66.83,92.66Z"/><path class="cls-3" d="M78.56,37.57c.24-1,2.42-11.52,18-11.55a1.74,1.74,0,0,1,1.72,1.45c.55,3.31,1.28,11.49-4.09,14.7-6.8,4.08-18,4.86-16.36-1.27C78.3,39,78.31,38.63,78.56,37.57Z"/><path class="cls-5" d="M79.86,38.79c.17-.71,1.69-7.93,12.39-8a1.19,1.19,0,0,1,1.18,1c.37,2.27.85,7.9-2.84,10.12-4.69,2.81-12.37,3.37-11.25-.84C79.68,39.79,79.68,39.52,79.86,38.79Z"/><path class="cls-3" d="M46.83,37.57c-.24-1-2.42-11.52-18-11.55a1.73,1.73,0,0,0-1.72,1.45c-.55,3.31-1.28,11.49,4.09,14.7,6.8,4.08,18,4.86,16.35-1.27C47.09,39,47.08,38.63,46.83,37.57Z"/><path class="cls-5" d="M45.53,38.79c-.17-.71-1.69-7.93-12.39-8a1.19,1.19,0,0,0-1.18,1c-.37,2.27-.85,7.9,2.84,10.12,4.69,2.81,12.36,3.37,11.25-.84C45.71,39.79,45.7,39.52,45.53,38.79Z"/><path class="cls-5" d="M51,117.91c-.37.52-.76,1.1-1.14,1.7L49.45,124a64.34,64.34,0,0,0,10,1.32,24.14,24.14,0,0,0-4.27-7.55A2.65,2.65,0,0,0,51,117.91Z"/><path class="cls-5" d="M75.16,114.85a3.29,3.29,0,0,0-1.85.46l-4.16,2.31a2.66,2.66,0,0,0-1.31,1.77c-.51,2.37-1.09,4.36.32,5.76A63.94,63.94,0,0,0,75.94,124Z"/></g></g></g></svg>