<svg xmlns="http://www.w3.org/2000/svg" viewBox="0 0 125.39 125.39"><defs><style>.cls-1{fill:#7594c6;}.cls-2{fill:#536c91;}.cls-3{fill:#f1bb71;}.cls-4{fill:#db9f58;}.cls-5{fill:#b25204;}.cls-6{fill:#ffeecd;}.cls-7{fill:#28231f;}.cls-8{fill:#1c1c1c;}.cls-9{fill:#fff;}.cls-10{fill:#984815;}.cls-11{fill:#6d4721;}</style></defs><title>lion</title><g id="Layer_2" data-name="Layer 2"><g id="Layer_2-2" data-name="Layer 2"><g id="lion"><path class="cls-1" d="M125.39,62.69A62.68,62.68,0,0,1,94.5,116.74c-9.33,5.49-20.2,3.38-31.81,3.38s-22.48,2.11-31.8-3.39a62.7,62.7,0,1,1,94.5-54Z"/><path class="cls-2" d="M125.39,62.11,100.9,32.85,61.68,116.62c2.3.25,3,2.5,5.35,2.5,11.59,0,18.13,3.12,27.44-2.37a62.66,62.66,0,0,0,30.92-54.06Z"/><path class="cls-3" d="M62.69,80.15c-17.56,0-31.8,15.82-31.8,35.34,0,.42,0,.84,0,1.26a62.77,62.77,0,0,0,63.56,0q0-.63,0-1.26C94.5,96,80.26,80.15,62.69,80.15Z"/><path class="cls-4" d="M62.69,125.39a62.84,62.84,0,0,0,18.2-2.68c-.54-18.59-8.48-33.33-18.2-33.33S45,104.12,44.5,122.71A62.83,62.83,0,0,0,62.69,125.39Z"/><circle class="cls-5" cx="62.69" cy="62.69" r="46.38" transform="translate(-12.51 109.65) rotate(-76.98)"/><path class="cls-3" d="M91.6,55.17c0,16-12.93,32.09-28.88,32.09S33.84,71.12,33.84,55.17c0-7.89,12.29-19.22,27.3-12.34a3.66,3.66,0,0,0,3.12,0C78.32,35.9,91.6,47.9,91.6,55.17Z"/><ellipse class="cls-6" cx="62.72" cy="77" rx="7.58" ry="7.39"/><path class="cls-7" d="M70.87,74.33c0,2-3.66,4.11-8.18,4.11s-8.17-2.12-8.17-4.11,3.66-3.08,8.17-3.08S70.87,72.35,70.87,74.33Z"/><ellipse class="cls-6" cx="58.36" cy="72.23" rx="4.33" ry="4.36"/><path class="cls-6" d="M71.36,72.23A4.34,4.34,0,1,1,67,67.87,4.34,4.34,0,0,1,71.36,72.23Z"/><path class="cls-6" d="M56.5,56.59a4.78,4.78,0,1,1-4.77-4.77A4.78,4.78,0,0,1,56.5,56.59Z"/><path class="cls-6" d="M78.44,56.59a4.78,4.78,0,1,1-4.78-4.77A4.78,4.78,0,0,1,78.44,56.59Z"/><path class="cls-8" d="M54.34,56.59A2.62,2.62,0,1,1,51.73,54,2.61,2.61,0,0,1,54.34,56.59Z"/><circle class="cls-8" cx="73.66" cy="56.59" r="2.61"/><path class="cls-9" d="M54,55.69a1.34,1.34,0,1,1-1.34-1.34A1.34,1.34,0,0,1,54,55.69Z"/><path class="cls-9" d="M75.91,55.69a1.34,1.34,0,1,1-1.34-1.34A1.34,1.34,0,0,1,75.91,55.69Z"/><path class="cls-7" d="M67.72,66.51c-1.33-.6-3.33.56-5,.56s-3.67-1.16-5-.56-2.07,1.39-1,1.91c3.84,1.88,4.15,5,6,5.37,1.88-.34,2.19-3.49,6-5.37C69.8,67.9,69.11,67.14,67.72,66.51Z"/><path class="cls-10" d="M66.51,67.07a20,20,0,0,1-3.8.72,19.86,19.86,0,0,1-3.8-.72.35.35,0,0,0-.23.66c4.42,2.32,1.9,5.28,4,5.28s-.38-3,4-5.28A.35.35,0,0,0,66.51,67.07Z"/><path class="cls-3" d="M102.9,37.74a8.89,8.89,0,0,0-15.12-5.56,6,6,0,0,0,.16,8.53l4.17,4a6,6,0,0,0,8.66-.4A8.85,8.85,0,0,0,102.9,37.74Z"/><path class="cls-11" d="M99,38.36a4.95,4.95,0,1,1-5.07-4.82A4.95,4.95,0,0,1,99,38.36Z"/><path class="cls-3" d="M30.6,29.6a8.89,8.89,0,0,0-5.55,15.12,6,6,0,0,0,8.52-.17l4-4.17a6,6,0,0,0-.4-8.65A8.83,8.83,0,0,0,30.6,29.6Z"/><path class="cls-11" d="M31.22,33.51a4.94,4.94,0,1,1-4.82,5.06A4.95,4.95,0,0,1,31.22,33.51Z"/></g></g></g></svg>