<svg xmlns="http://www.w3.org/2000/svg" viewBox="0 0 125.39 125.39"><defs><style>.cls-1{fill:#5f8ab4;}.cls-2{fill:#43627c;}.cls-3{fill:#444;}.cls-4{fill:#e5e5e5;}.cls-5{fill:#1c1c1c;}.cls-6{fill:#fff;}</style></defs><title>orca</title><g id="Layer_2" data-name="Layer 2"><g id="Layer_2-2" data-name="Layer 2"><g id="whale"><circle class="cls-1" cx="62.69" cy="62.69" r="62.69"/><path class="cls-2" d="M63.29,0l-.17,1.09L60.39,33.38,43.75,73.53,34,89.41l-10.94,12,21.2,21.19A62.7,62.7,0,1,0,63.29,0Z"/><path class="cls-3" d="M42,72.51c-7.69,3.58-24.43,24.59-19,28.93,4.26,3.38,18.8-.28,25.28-7.1S55,76.94,55,76.94,49.72,68.93,42,72.51Z"/><path class="cls-3" d="M85.35,72.51c7.69,3.58,24.43,24.59,19,28.93-4.26,3.38-18.79-.28-25.28-7.1s-6.65-17.4-6.65-17.4S77.65,68.93,85.35,72.51Z"/><path class="cls-4" d="M94.33,55.7a31.64,31.64,0,0,1-63.27,0c0-.44,0-.87,0-1.3,2.63-1.45,2.81-6.57,1.43-8.22a31.62,31.62,0,0,1,6.07-11c9.1,1.4,14.06-5.6,23.72-5.6s10.56,8.75,24.5,5.6a31.44,31.44,0,0,1,6.08,11c-2.64,2.57-.42,6.57,1.43,8.21C94.32,54.83,94.33,55.26,94.33,55.7Z"/><path class="cls-3" d="M33,54.56c11.67,0,14,12.3,29.67,12.3s18-12.3,29.68-12.3a16.87,16.87,0,0,0,1.94-.1,31.64,31.64,0,0,0-63.23,0A16.75,16.75,0,0,0,33,54.56Z"/><path class="cls-5" d="M44.06,49.76a2.62,2.62,0,1,1-2.61-2.62A2.61,2.61,0,0,1,44.06,49.76Z"/><path class="cls-6" d="M43.69,48.85a1.34,1.34,0,1,1-1.33-1.34A1.33,1.33,0,0,1,43.69,48.85Z"/><path class="cls-5" d="M81.33,49.76a2.61,2.61,0,1,0,2.61-2.62A2.61,2.61,0,0,0,81.33,49.76Z"/><path class="cls-6" d="M83.64,49A1.34,1.34,0,1,0,85,47.64,1.34,1.34,0,0,0,83.64,49Z"/><path class="cls-4" d="M38.59,35.21a31.44,31.44,0,0,0-6.08,11c4.8,1.78,9.43,1.16,10.83-1.67S42.6,37.94,38.59,35.21Z"/><path class="cls-4" d="M86.8,35.21c-4,2.73-6.1,6.6-4.75,9.31s6,3.45,10.83,1.67A31.6,31.6,0,0,0,86.8,35.21Z"/><path class="cls-3" d="M60.94,0a165.35,165.35,0,0,0-.86,18.16c0,13.49,1.17,24.42,2.61,24.42s2.62-10.93,2.62-24.42A162.53,162.53,0,0,0,64.44,0L62.69,0Z"/></g></g></g></svg>