<svg xmlns="http://www.w3.org/2000/svg" viewBox="0 0 125.39 125.39"><defs><style>.cls-1{fill:#59d2d8;}.cls-2{fill:#40a0a0;}.cls-3{fill:#f2f2f2;}.cls-4{fill:#757575;}.cls-5{fill:#e5e5e5;}.cls-6{fill:#bfbfbf;}.cls-7{fill:#1c1c1c;}.cls-8{fill:#fff;}.cls-9{fill:#303030;}</style></defs><title>polar-bear</title><g id="Layer_2" data-name="Layer 2"><g id="Layer_2-2" data-name="Layer 2"><g id="polar_bear" data-name="polar bear"><path class="cls-1" d="M125.39,62.69a62.59,62.59,0,0,1-25.64,50.58c-10.38,7.62-23.17,6-37,6s-26.62,1.68-37-5.9a62.7,62.7,0,1,1,99.66-50.65Z"/><path class="cls-2" d="M94,31.52,62.72,116.63c1.05.05,2.41,2.77,3.47,2.77,13.82,0,23.09,1.52,33.45-6.05A62.6,62.6,0,0,0,125.39,63Z"/><path class="cls-3" d="M75.84,35.43s12.21-11.32,18.85-3.1S90,58.67,90,58.67s-17.9-8.34-17.55-9.11S75.84,35.43,75.84,35.43Z"/><path class="cls-4" d="M79.32,38.57s7.44-6.9,11.5-1.89S88,52.75,88,52.75,77,47.66,77.26,47.19,79.32,38.57,79.32,38.57Z"/><path class="cls-3" d="M49.55,35.43S37.34,24.11,30.7,32.33s4.68,26.34,4.68,26.34,17.89-8.34,17.55-9.11S49.55,35.43,49.55,35.43Z"/><path class="cls-4" d="M46.07,38.57s-7.45-6.9-11.5-1.89,2.85,16.07,2.85,16.07,10.92-5.09,10.71-5.56S46.07,38.57,46.07,38.57Z"/><path class="cls-5" d="M62.72,72.45C42,72.45,25.28,88.3,25.28,107.86a34.24,34.24,0,0,0,.45,5.48,62.71,62.71,0,0,0,74,0,33.53,33.53,0,0,0,.44-5.43C100.16,88.3,83.4,72.45,62.72,72.45Z"/><path class="cls-6" d="M62.72,77.5c-12.93,0-23.42,11.75-23.42,26.25a27.68,27.68,0,0,0,8,19.73,63.2,63.2,0,0,0,30.92,0,27.65,27.65,0,0,0,7.94-19.71C86.13,89.25,75.65,77.5,62.72,77.5Z"/><path class="cls-3" d="M93.59,68.42c0,17-13.82,20.64-30.87,20.64S31.85,85.47,31.85,68.42s4.68-34.95,30.87-34.95S93.59,51.37,93.59,68.42Z"/><path class="cls-6" d="M73.58,56.49a4.78,4.78,0,0,0-4.77,4.78,4.34,4.34,0,0,0,.1,1,7.2,7.2,0,0,0-4.7-1.76h-3a7.2,7.2,0,0,0-4.7,1.76,4.34,4.34,0,0,0,.1-1,4.77,4.77,0,1,0-2.19,4A7.27,7.27,0,0,0,54,67.67V70.3a7.22,7.22,0,0,0,7.2,7.2h3a7.22,7.22,0,0,0,7.2-7.2V67.67A7,7,0,0,0,71,65.28a4.78,4.78,0,1,0,2.59-8.79Z"/><path class="cls-7" d="M76.2,61.27a2.62,2.62,0,1,1-2.62-2.62A2.61,2.61,0,0,1,76.2,61.27Z"/><path class="cls-8" d="M75.83,60.36A1.34,1.34,0,1,1,74.49,59,1.34,1.34,0,0,1,75.83,60.36Z"/><path class="cls-7" d="M54.42,61.27a2.62,2.62,0,1,1-2.61-2.62A2.61,2.61,0,0,1,54.42,61.27Z"/><path class="cls-8" d="M54.05,60.36A1.34,1.34,0,1,1,52.72,59,1.34,1.34,0,0,1,54.05,60.36Z"/><path class="cls-9" d="M72.78,80.14a.49.49,0,0,0-.65-.23,25.11,25.11,0,0,1-9,2.17V78.24c4.4-.16,7.89-2.69,7.89-5.79s-3.72-5.8-8.32-5.8-8.31,2.6-8.31,5.8,3.49,5.63,7.89,5.79v3.83a28.16,28.16,0,0,1-9-2.17.5.5,0,0,0-.64.25.49.49,0,0,0,.25.64,28.21,28.21,0,0,0,9.88,2.26,25.18,25.18,0,0,0,9.77-2.27A.48.48,0,0,0,72.78,80.14Z"/></g></g></g></svg>