<svg xmlns="http://www.w3.org/2000/svg" viewBox="0 0 125.39 125.39"><defs><style>.cls-1{fill:#c25dd1;}.cls-2{fill:#924c9e;}.cls-3{fill:#3e2318;}.cls-4{fill:#e2bd81;}.cls-5{fill:#f9e4c0;}.cls-6{fill:#fad28c;}.cls-7{fill:#d8b47c;}.cls-8{fill:#1c1c1c;}.cls-9{fill:#fff;}.cls-10{fill:#af9068;}</style></defs><title>porcupine</title><g id="Layer_2" data-name="Layer 2"><g id="Layer_2-2" data-name="Layer 2"><g id="hedgehog"><path class="cls-1" d="M125.39,62.69a62.71,62.71,0,0,1-35.75,56.63c-8.16,3.89-17.3,3-26.95,3s-18.71,1-26.85-2.92a62.7,62.7,0,1,1,89.55-56.67Z"/><path class="cls-2" d="M124.84,54.36l-17-17.14-2.13,1.83L88.21,21.57,80,32.85,64.29,16.29,52.14,48.65,27.36,71.81s54,51.44,62.05,47.62a62.72,62.72,0,0,0,36-56.74A63.57,63.57,0,0,0,124.84,54.36Z"/><path class="cls-3" d="M107.85,106.19l-3.94-11.13a2.17,2.17,0,0,1,1.35-2.79L117.72,88a2.19,2.19,0,0,0,.83-3.62l-9.36-9.29a2.18,2.18,0,0,1,0-3.11l9.36-9.29a2.19,2.19,0,0,0-.83-3.62l-12.46-4.31a2.19,2.19,0,0,1-1.35-2.8l4.4-12.43a2.18,2.18,0,0,0-2.31-2.9L92.9,38.11a2.19,2.19,0,0,1-2.43-1.93L89,23.07a2.2,2.2,0,0,0-3.35-1.62L74.55,28.51a2.18,2.18,0,0,1-3-.69l-7-11.19a2.18,2.18,0,0,0-3.71,0l-7,11.19a2.18,2.18,0,0,1-3,.69L39.69,21.45a2.19,2.19,0,0,0-3.34,1.62L34.92,36.18a2.19,2.19,0,0,1-2.43,1.93l-13.1-1.52a2.18,2.18,0,0,0-2.31,2.9l4.4,12.43a2.19,2.19,0,0,1-1.35,2.8L7.67,59a2.19,2.19,0,0,0-.83,3.62l9.36,9.29a2.2,2.2,0,0,1,0,3.11L6.84,84.34A2.19,2.19,0,0,0,7.67,88l12.46,4.31a2.17,2.17,0,0,1,1.35,2.79l-3.94,11.13c1.33,1.37,2.71,2.69,4.16,3.94l10.79-1.26a2.19,2.19,0,0,1,2.43,1.94l.93,8.56c1.64.78,3.32,1.48,5,2.12,1.11.41,10-3,10-3a2.17,2.17,0,0,1,3,.7H71.53a2.17,2.17,0,0,1,3-.7s8.83,3.44,9.93,3q2.58-1,5.06-2.13l.93-8.56a2.19,2.19,0,0,1,2.43-1.94l10.79,1.26C105.13,108.88,106.52,107.56,107.85,106.19Z"/><path class="cls-4" d="M62.69,66.83c-6.59,0-12.34.78-16.91,9.45C40.13,87,37.2,106.54,40.89,121.49a62.91,62.91,0,0,0,43.61,0c3.69-14.95.76-34.52-4.89-45.21C75,67.61,69.29,66.83,62.69,66.83Z"/><path class="cls-5" d="M62.69,78c-9,0-16.27,2.27-16.27,20.16,0,11,2.76,20.73,7,26.58a63.09,63.09,0,0,0,18.61,0c4.21-5.85,7-15.57,7-26.58C79,80.23,71.68,78,62.69,78Z"/><path class="cls-6" d="M90.83,68.69c0,17-15.77,29.12-28.14,29.12S34.56,85.74,34.56,68.69c0-20.8,19-5,28.13-5S90.83,49.42,90.83,68.69Z"/><path class="cls-7" d="M73.25,92.08c0,6.06-4.73,5.73-10.56,5.73s-10.55.33-10.55-5.73a10.56,10.56,0,1,1,21.11,0Z"/><path class="cls-3" d="M68.16,93.71c0,2.27-2.45,4.1-5.47,4.1s-5.46-1.83-5.46-4.1,2.45-4.1,5.46-4.1S68.16,91.45,68.16,93.71Z"/><path class="cls-7" d="M78.12,78.51a4.78,4.78,0,1,1-4.78-4.77A4.78,4.78,0,0,1,78.12,78.51Z"/><path class="cls-8" d="M76,78.51a2.62,2.62,0,1,1-2.62-2.61A2.62,2.62,0,0,1,76,78.51Z"/><circle class="cls-9" cx="74.25" cy="77.6" r="1.34"/><path class="cls-7" d="M56.82,78.51a4.78,4.78,0,1,1-4.77-4.77A4.78,4.78,0,0,1,56.82,78.51Z"/><circle class="cls-8" cx="52.05" cy="78.51" r="2.61"/><circle class="cls-9" cx="52.96" cy="77.6" r="1.34"/><path class="cls-7" d="M81.47,64.18A5.54,5.54,0,0,1,81,56.91c3.16-4.08,9.62-10.62,13.16-7.39,4.61,4.22,1.61,14.77-2.45,20.86a3.21,3.21,0,0,1-5.42-.13A33.67,33.67,0,0,0,81.47,64.18Z"/><path class="cls-10" d="M89.44,57.31c-2.12-1.94-6,2-7.87,4.41a3.36,3.36,0,0,0-.67,1.76,5.45,5.45,0,0,0,.57.7,33.67,33.67,0,0,1,4.86,6.07c.08.13.17.25.26.37A1.9,1.9,0,0,0,88,69.78C90.4,66.14,92.2,59.83,89.44,57.31Z"/><path class="cls-7" d="M43.91,64.18a5.53,5.53,0,0,0,.43-7.27c-3.15-4.08-9.61-10.62-13.15-7.39-4.61,4.22-1.61,14.77,2.45,20.86a3.21,3.21,0,0,0,5.42-.13A33.64,33.64,0,0,1,43.91,64.18Z"/><path class="cls-10" d="M36,57.31c2.12-1.94,6,2,7.86,4.41a3.29,3.29,0,0,1,.68,1.76,4.79,4.79,0,0,1-.58.7,33.64,33.64,0,0,0-4.85,6.07c-.08.13-.17.25-.26.37a1.94,1.94,0,0,1-1.39-.84C35,66.14,33.19,59.83,36,57.31Z"/></g></g></g></svg>