<svg xmlns="http://www.w3.org/2000/svg" viewBox="0 0 125.39 125.39"><defs><style>.cls-1{fill:#8dabad;}.cls-2{fill:#607272;}.cls-3{fill:#797572;}.cls-4{fill:#93918f;}.cls-5{fill:#393333;}.cls-6{fill:#fbfdfa;}.cls-7{fill:#e2dcde;}.cls-8{fill:#1c1c1c;}.cls-9{fill:#fff;}</style></defs><title>racoon</title><g id="Layer_2" data-name="Layer 2"><g id="Layer_2-2" data-name="Layer 2"><g id="raccoon"><path class="cls-1" d="M125.39,62.69a62.68,62.68,0,0,1-31.08,54.16c-9.17-7.29-20.09,0-31.62,0s-25.18-7.43-31.58,0a62.7,62.7,0,1,1,94.28-54.17Z"/><path class="cls-2" d="M91.9,45.21,63.15,83.47l16.24,24.21c8.28-1.14,9.5,2.63,14.92,9.17a62.76,62.76,0,0,0,29.74-67.08L97,21.26Z"/><path class="cls-3" d="M62.69,80.15c-17.56,0-31.8,15.82-31.8,35.34,0,.42,0,.84,0,1.26a62.45,62.45,0,0,0,13.61,6c4.12-4.78,10.67-4.65,17-4.65s14,0,19.27,4.68a62.06,62.06,0,0,0,13.69-6q0-.63,0-1.26C94.5,96,80.26,80.15,62.69,80.15Z"/><path class="cls-4" d="M62.69,125.39a62.84,62.84,0,0,0,18.2-2.68c-.54-18.59-8.48-26.25-18.2-26.25S45,104.12,44.5,122.71A62.83,62.83,0,0,0,62.69,125.39Z"/><path class="cls-3" d="M50.4,37s-11.93-14.87-19.92-16,0,32.21,0,32.21Z"/><path class="cls-5" d="M47.42,40s-7.6-9.48-12.7-10.22,0,20.54,0,20.54Z"/><path class="cls-3" d="M75.5,37s11.93-14.87,19.92-16,0,32.21,0,32.21Z"/><path class="cls-5" d="M78.48,40s7.61-9.48,12.7-10.22,0,20.54,0,20.54Z"/><path class="cls-3" d="M110.29,67.05S89.1,90.69,63,90.69,15.61,67.05,15.61,67.05,36.81,30.17,63,30.17,110.29,67.05,110.29,67.05Z"/><path class="cls-5" d="M51.18,48.32C40.34,52.64,31.63,61.72,27.5,66.63a4.54,4.54,0,0,0,.38,6.27c4.32,4,13,11,23.68,14.3a4.56,4.56,0,0,0,5.88-4.37V52.55A4.56,4.56,0,0,0,51.18,48.32Z"/><path class="cls-5" d="M68.46,52.55V82.83a4.56,4.56,0,0,0,5.88,4.37C85,83.93,93.71,76.91,98,72.9a4.55,4.55,0,0,0,.38-6.27c-4.13-4.91-12.84-14-23.68-18.31A4.57,4.57,0,0,0,68.46,52.55Z"/><path class="cls-6" d="M83.38,76.47a1.49,1.49,0,0,1-.08,2.19c-2.92,2.46-10.93,8.4-20.35,8.4s-17.43-5.94-20.34-8.4a1.48,1.48,0,0,1-.09-2.19c2.84-2.81,10.92-9.86,20.43-9.86S80.54,73.66,83.38,76.47Z"/><path class="cls-7" d="M80.28,57.92a4.78,4.78,0,1,1-4.78-4.77A4.77,4.77,0,0,1,80.28,57.92Z"/><path class="cls-8" d="M78.12,57.92a2.62,2.62,0,1,1-2.62-2.61A2.61,2.61,0,0,1,78.12,57.92Z"/><circle class="cls-9" cx="76.41" cy="57.01" r="1.34"/><path class="cls-7" d="M55.18,57.92a4.78,4.78,0,1,1-4.78-4.77A4.77,4.77,0,0,1,55.18,57.92Z"/><path class="cls-8" d="M53,57.92a2.62,2.62,0,1,1-2.62-2.61A2.61,2.61,0,0,1,53,57.92Z"/><path class="cls-9" d="M52.65,57A1.34,1.34,0,1,1,50,57a1.34,1.34,0,0,1,2.67,0Z"/><path class="cls-5" d="M69,80.19a.29.29,0,0,0-.39-.14,15.1,15.1,0,0,1-5.43,1.31V78.28c3.14-.09,5.64-1.86,5.64-4s-2.64-4-5.9-4-5.89,1.81-5.89,4,2.5,3.94,5.63,4v3.08a17.21,17.21,0,0,1-5.43-1.31.29.29,0,0,0-.39.15.28.28,0,0,0,.15.38A16.81,16.81,0,0,0,63,82a15.42,15.42,0,0,0,5.9-1.37A.29.29,0,0,0,69,80.19Z"/></g></g></g></svg>