<svg xmlns="http://www.w3.org/2000/svg" viewBox="0 0 125.39 125.39"><defs><style>.cls-1{fill:#5fafff;}.cls-2{fill:#4380aa;}.cls-3{fill:#d87430;}.cls-4{fill:#fcf0de;}.cls-5{fill:#28231f;}.cls-6{fill:#ffeecd;}.cls-7{fill:#1c1c1c;}.cls-8{fill:#fff;}.cls-9{fill:#bc672e;}.cls-10{fill:#f99885;}.cls-11{fill:#6d4721;}.cls-12{fill:#3d332c;}</style></defs><title>tiger</title><g id="Layer_2" data-name="Layer 2"><g id="Layer_2-2" data-name="Layer 2"><g id="tiger"><path class="cls-1" d="M125.39,62.69a62.68,62.68,0,0,1-30.92,54.06c-7.68-5.79-19.66.47-31.26.47s-24.45-8.58-32.29-.47a62.7,62.7,0,1,1,94.47-54.06Z"/><path class="cls-2" d="M125.39,62.69a63.75,63.75,0,0,0-.63-8.9L102.25,31.27,56.18,100.12s29.2,11.78,38.23,16.67A62.66,62.66,0,0,0,125.39,62.69Z"/><path class="cls-3" d="M62.69,80.15c-17.56,0-31.8,15.82-31.8,35.34,0,.42,0,.84,0,1.26a62.57,62.57,0,0,0,13.59,6c3.79-4.9,11.3-4.15,17.63-4.15s13.08.91,18.76,4.15a62.49,62.49,0,0,0,13.58-6q0-.63,0-1.26C94.5,96,80.26,80.15,62.69,80.15Z"/><path class="cls-4" d="M62.69,125.39a62.84,62.84,0,0,0,18.2-2.68c-.54-18.59-8.48-26.18-18.2-26.18S45,104.12,44.5,122.71A62.83,62.83,0,0,0,62.69,125.39Z"/><path class="cls-3" d="M100.16,70.05c0-20.69-16.78-41.63-37.47-41.63S25.23,49.36,25.23,70.05c0,10.23,17.37,15.58,37.45,15.58S100.16,79.48,100.16,70.05Z"/><ellipse class="cls-4" cx="62.73" cy="81.96" rx="10.57" ry="9.47"/><path class="cls-4" d="M62.68,85.63c20.07,0,37.48-6.15,37.48-15.58a41.07,41.07,0,0,0-1.39-10.44c-7.39-1.21-16.11.23-24.3,4.57a42.91,42.91,0,0,0-11.78,9.13,42.76,42.76,0,0,0-11.78-9.13C42.73,59.84,34,58.4,26.62,59.61a41.07,41.07,0,0,0-1.39,10.44C25.23,80.28,42.6,85.63,62.68,85.63Z"/><path class="cls-5" d="M73.29,74.47c0,2.58-4.74,5.33-10.6,5.33S52.1,77.05,52.1,74.47s4.74-4,10.59-4S73.29,71.9,73.29,74.47Z"/><path class="cls-4" d="M62.69,71.75a5.62,5.62,0,1,1-5.61-5.65A5.63,5.63,0,0,1,62.69,71.75Z"/><path class="cls-4" d="M73.93,71.75a5.62,5.62,0,1,1-5.62-5.65A5.63,5.63,0,0,1,73.93,71.75Z"/><path class="cls-6" d="M54.66,51.46a6.2,6.2,0,1,1-6.19-6.19A6.2,6.2,0,0,1,54.66,51.46Z"/><circle class="cls-6" cx="76.92" cy="51.46" r="6.19"/><path class="cls-7" d="M51.86,51.46a3.4,3.4,0,1,1-3.39-3.39A3.39,3.39,0,0,1,51.86,51.46Z"/><circle class="cls-7" cx="76.92" cy="51.46" r="3.39"/><path class="cls-8" d="M51.38,50.28a1.74,1.74,0,1,1-1.73-1.73A1.74,1.74,0,0,1,51.38,50.28Z"/><rect class="cls-9" x="55.59" y="52.34" width="14.21" height="17.11" rx="6.29"/><circle class="cls-8" cx="78.1" cy="50.28" r="1.73"/><path class="cls-5" d="M69.22,64.33c-1.73-.79-4.33.72-6.49.72s-4.76-1.51-6.5-.72-2.68,1.8-1.32,2.47c5,2.45,5.37,6.52,7.82,7,2.44-.45,2.83-4.52,7.81-7C71.91,66.13,71,65.14,69.22,64.33Z"/><path class="cls-10" d="M67.64,65.06a27.12,27.12,0,0,1-4.93.93,27.12,27.12,0,0,1-4.93-.93.45.45,0,0,0-.29.85c5.73,3,2.46,6.84,5.2,6.84s-.49-3.84,5.25-6.84A.46.46,0,0,0,67.64,65.06Z"/><path class="cls-3" d="M104.31,38.1a11.51,11.51,0,0,0-18.74-9.23,7.74,7.74,0,0,0-.95,11l4.84,5.69a7.76,7.76,0,0,0,11.21.67A11.45,11.45,0,0,0,104.31,38.1Z"/><path class="cls-11" d="M99.19,38.36a6.42,6.42,0,1,1-5.88-6.91A6.43,6.43,0,0,1,99.19,38.36Z"/><path class="cls-3" d="M21.08,38.1a11.51,11.51,0,0,1,18.74-9.23,7.74,7.74,0,0,1,1,11l-4.84,5.69a7.77,7.77,0,0,1-11.22.67A11.48,11.48,0,0,1,21.08,38.1Z"/><path class="cls-11" d="M26.2,38.29a6.49,6.49,0,1,0,5.94-7A6.49,6.49,0,0,0,26.2,38.29Z"/><path class="cls-12" d="M74.5,33.16c-.18.7-8.61-.2-11.91-.23-2.73,0-11.58.76-11.7.23C50.67,32.24,59.47,30,62.57,30S74.62,32.72,74.5,33.16Z"/><path class="cls-12" d="M71.24,38c-.07.38-6.12,0-8.62,0-2.24,0-8.52.11-8.55-.07-.09-.5,6.12-2.08,8.53-2.06C65.2,35.89,71.25,37.89,71.24,38Z"/><path class="cls-12" d="M66.61,42.64c0,.28-1.78.26-4,.27s-4,0-4-.24,1.77-.75,4-.76S66.61,42.37,66.61,42.64Z"/><path class="cls-12" d="M47.28,97.08c.35-1.29-3.4-3.44-8.48-4.91a35.57,35.57,0,0,0-2.95,4.37l1,.31C42.27,98.31,46.92,98.41,47.28,97.08Z"/><path class="cls-12" d="M43,105.42c.36-1.33-3.69-3.6-9.06-5.07a37.53,37.53,0,0,0-1.66,4.75l.34.09C38,106.65,42.65,106.76,43,105.42Z"/><path class="cls-12" d="M38.74,113.77c.32-1.19-2.86-3.12-7.35-4.56a37.94,37.94,0,0,0-.47,4.93C35.13,115,38.43,114.88,38.74,113.77Z"/><path class="cls-12" d="M77.76,97.08c.36,1.33,5,1.23,10.38-.23l1.35-.4a35.59,35.59,0,0,0-3-4.36C81.3,93.56,77.4,95.77,77.76,97.08Z"/><path class="cls-12" d="M82,105.42c.36,1.34,5,1.23,10.38-.23l.66-.19a35.79,35.79,0,0,0-1.67-4.73l-.31.08C85.72,101.82,81.66,104.09,82,105.42Z"/><path class="cls-12" d="M86.3,113.77c.31,1.14,3.79,1.23,8.17.3a40.41,40.41,0,0,0-.49-5C89.31,110.55,86,112.55,86.3,113.77Z"/><path class="cls-12" d="M32,52.29c.69.2-.38,8.6-.47,11.91-.07,2.73.52,11.59,0,11.7-.93.2-3-8.64-2.92-11.74S31.54,52.17,32,52.29Z"/><path class="cls-12" d="M36.71,55.65c.38.08-.08,6.12-.13,8.62,0,2.24-.06,8.52-.25,8.55-.5.07-1.94-6.17-1.88-8.58C34.51,61.65,36.63,55.64,36.71,55.65Z"/><path class="cls-12" d="M93.41,52.29c-.68.2.38,8.6.48,11.91.07,2.73-.52,11.59,0,11.7.93.2,3-8.64,2.92-11.74S93.85,52.17,93.41,52.29Z"/><path class="cls-12" d="M88.68,55.65c-.38.08.07,6.12.13,8.62,0,2.24.06,8.52.25,8.55.5.07,1.94-6.17,1.88-8.58C90.88,61.65,88.76,55.64,88.68,55.65Z"/></g></g></g></svg>