<svg xmlns="http://www.w3.org/2000/svg" viewBox="0 0 125.39 125.39"><defs><style>.cls-1{fill:#4bb7a7;}.cls-2{fill:#31776b;}.cls-3{fill:#8e8e8e;}.cls-4{fill:#7a7a7a;}.cls-5{fill:#666;}.cls-6{fill:#fafce8;}.cls-7{fill:#444;}.cls-8{fill:#1c1c1c;}.cls-9{fill:#fff;}.cls-10{fill:#232323;}</style></defs><title>walrus</title><g id="Layer_2" data-name="Layer 2"><g id="Layer_2-2" data-name="Layer 2"><g id="walrus"><path class="cls-1" d="M125.39,62.69a62.42,62.42,0,0,1-14.08,39.59c-11.43,2.7-29.43,9.57-49,9.57s-34.76-12.12-48.2-9.57A62.7,62.7,0,1,1,125.39,62.69Z"/><path class="cls-2" d="M97.42,35.52,68.85,52.73l36.66,45.78c2.21-2,3.87,1.34,5.8,3.78a62.46,62.46,0,0,0,14.06-38Z"/><path class="cls-3" d="M62.69,19.66c-28.59,0-51.78,27.5-51.78,61.43a71.55,71.55,0,0,0,3.17,21.19,62.69,62.69,0,0,0,97.23,0,71.55,71.55,0,0,0,3.17-21.19C114.48,47.16,91.29,19.66,62.69,19.66Z"/><ellipse class="cls-4" cx="62.69" cy="60.8" rx="33.65" ry="37.71"/><circle class="cls-5" cx="62.69" cy="52.14" r="29.04"/><path class="cls-6" d="M44.75,64.52a3.88,3.88,0,0,0-4.08,3.61c0,1.35,0,2.71,0,4.09,0,23,1.83,41.66,4.1,41.66s4.1-18.65,4.1-41.66c0-1.38,0-2.74,0-4.09a3.88,3.88,0,0,0-4.08-3.61Z"/><path class="cls-6" d="M81,64.52A3.88,3.88,0,0,0,77,68.13c0,1.35,0,2.71,0,4.09,0,23,1.84,41.66,4.1,41.66s4.1-18.65,4.1-41.66c0-1.38,0-2.74,0-4.09A3.88,3.88,0,0,0,81,64.52Z"/><path class="cls-7" d="M51.37,43.5a4.77,4.77,0,1,1-4.77-4.77A4.77,4.77,0,0,1,51.37,43.5Z"/><path class="cls-7" d="M83.56,43.5a4.78,4.78,0,1,1-4.77-4.77A4.77,4.77,0,0,1,83.56,43.5Z"/><path class="cls-8" d="M49.22,43.5a2.62,2.62,0,1,1-2.62-2.61A2.62,2.62,0,0,1,49.22,43.5Z"/><path class="cls-8" d="M81.4,43.5a2.62,2.62,0,1,1-2.61-2.61A2.61,2.61,0,0,1,81.4,43.5Z"/><path class="cls-9" d="M48.85,43.5a1.34,1.34,0,1,1-1.34-1.33A1.34,1.34,0,0,1,48.85,43.5Z"/><path class="cls-9" d="M81,43.5a1.34,1.34,0,1,1-1.33-1.33A1.33,1.33,0,0,1,81,43.5Z"/><path class="cls-7" d="M83.05,54.91c-7.37-4.33-16-3.47-20.36,1.72-4.3-5.19-13-6.05-20.35-1.72-8,4.71-11.43,13.77-7.63,20.23S48.08,83,56.09,78.31a19.83,19.83,0,0,0,6.6-6.24,20,20,0,0,0,6.61,6.24c8,4.71,17.58,3.29,21.38-3.17S91.06,59.62,83.05,54.91Z"/><path class="cls-10" d="M60.7,50.81c1.53,1.24,1.82,3.53,1.39,4s-1.33-1.11-2.92-2.34-3-1.8-2.55-2.3S59.16,49.56,60.7,50.81Z"/><path class="cls-10" d="M64.69,50.81c-1.53,1.24-1.82,3.53-1.39,4s1.33-1.11,2.92-2.34,3-1.8,2.55-2.3S66.23,49.56,64.69,50.81Z"/><path class="cls-3" d="M85.66,64.68a.76.76,0,1,1-.76-.76A.76.76,0,0,1,85.66,64.68Z"/><path class="cls-3" d="M85.66,69.13a.76.76,0,1,1-.76-.76A.76.76,0,0,1,85.66,69.13Z"/><path class="cls-3" d="M81.22,60.24a.76.76,0,1,1-.76-.76A.76.76,0,0,1,81.22,60.24Z"/><path class="cls-3" d="M81.22,64.68a.76.76,0,1,1-.76-.76A.76.76,0,0,1,81.22,64.68Z"/><path class="cls-3" d="M81.22,69.13a.76.76,0,1,1-.76-.76A.76.76,0,0,1,81.22,69.13Z"/><path class="cls-3" d="M81.22,73.57a.76.76,0,1,1-.76-.76A.76.76,0,0,1,81.22,73.57Z"/><path class="cls-3" d="M76.78,55.8A.76.76,0,1,1,76,55,.76.76,0,0,1,76.78,55.8Z"/><path class="cls-3" d="M76.78,60.24a.76.76,0,1,1-.76-.76A.76.76,0,0,1,76.78,60.24Z"/><path class="cls-3" d="M76.78,64.68a.76.76,0,1,1-.76-.76A.76.76,0,0,1,76.78,64.68Z"/><path class="cls-3" d="M76.78,69.13a.76.76,0,1,1-.76-.76A.76.76,0,0,1,76.78,69.13Z"/><path class="cls-3" d="M76.78,73.57a.76.76,0,1,1-.76-.76A.76.76,0,0,1,76.78,73.57Z"/><path class="cls-3" d="M72.34,55.8a.76.76,0,1,1-.76-.76A.76.76,0,0,1,72.34,55.8Z"/><circle class="cls-3" cx="71.58" cy="60.24" r="0.76"/><circle class="cls-3" cx="71.58" cy="64.68" r="0.76"/><path class="cls-3" d="M72.34,69.13a.76.76,0,1,1-.76-.76A.76.76,0,0,1,72.34,69.13Z"/><path class="cls-3" d="M72.34,73.57a.76.76,0,1,1-.76-.76A.76.76,0,0,1,72.34,73.57Z"/><circle class="cls-3" cx="67.14" cy="60.24" r="0.76"/><circle class="cls-3" cx="67.14" cy="64.68" r="0.76"/><path class="cls-3" d="M67.9,69.13a.76.76,0,1,1-.76-.76A.76.76,0,0,1,67.9,69.13Z"/><path class="cls-3" d="M59,60.24a.76.76,0,1,1-.76-.76A.76.76,0,0,1,59,60.24Z"/><path class="cls-3" d="M59,64.68a.76.76,0,1,1-.76-.76A.76.76,0,0,1,59,64.68Z"/><path class="cls-3" d="M59,69.13a.76.76,0,1,1-.76-.76A.76.76,0,0,1,59,69.13Z"/><path class="cls-3" d="M54.57,55.8a.76.76,0,1,1-.76-.76A.76.76,0,0,1,54.57,55.8Z"/><circle class="cls-3" cx="53.81" cy="60.24" r="0.76"/><circle class="cls-3" cx="53.81" cy="64.68" r="0.76"/><path class="cls-3" d="M54.57,69.13a.76.76,0,1,1-.76-.76A.76.76,0,0,1,54.57,69.13Z"/><path class="cls-3" d="M54.57,73.57a.76.76,0,1,1-.76-.76A.76.76,0,0,1,54.57,73.57Z"/><path class="cls-3" d="M50.13,55.8a.76.76,0,1,1-.76-.76A.76.76,0,0,1,50.13,55.8Z"/><circle class="cls-3" cx="49.37" cy="60.24" r="0.76"/><circle class="cls-3" cx="49.37" cy="64.68" r="0.76"/><path class="cls-3" d="M50.13,69.13a.76.76,0,1,1-.76-.76A.76.76,0,0,1,50.13,69.13Z"/><path class="cls-3" d="M50.13,73.57a.76.76,0,1,1-.76-.76A.76.76,0,0,1,50.13,73.57Z"/><path class="cls-3" d="M45.69,60.24a.76.76,0,1,1-.76-.76A.76.76,0,0,1,45.69,60.24Z"/><path class="cls-3" d="M45.69,64.68a.76.76,0,1,1-.76-.76A.76.76,0,0,1,45.69,64.68Z"/><path class="cls-3" d="M45.69,69.13a.76.76,0,1,1-.76-.76A.76.76,0,0,1,45.69,69.13Z"/><path class="cls-3" d="M45.69,73.57a.76.76,0,1,1-.76-.76A.76.76,0,0,1,45.69,73.57Z"/><path class="cls-3" d="M41.25,64.68a.76.76,0,1,1-.76-.76A.76.76,0,0,1,41.25,64.68Z"/><path class="cls-3" d="M41.25,69.13a.76.76,0,1,1-.76-.76A.76.76,0,0,1,41.25,69.13Z"/></g></g></g></svg>