<svg xmlns="http://www.w3.org/2000/svg" viewBox="0 0 125.39 125.39"><defs><style>.cls-1{fill:#c25dd1;}.cls-2{fill:#924c9e;}.cls-3{fill:#d3d3d3;}.cls-4{fill:#e5e5e5;}.cls-5{fill:#595959;}.cls-6{fill:#1c1c1c;}.cls-7{fill:#fff;}.cls-8{fill:#3a3a3a;}.cls-9{fill:#232323;}</style></defs><title>zebra</title><g id="Layer_2" data-name="Layer 2"><g id="Layer_2-2" data-name="Layer 2"><g id="zebra"><path class="cls-1" d="M125.39,62.69A62.62,62.62,0,0,1,98.71,114c-11.7-5.35-22.61.9-36,.9s-25.55-6.5-36-.9a62.7,62.7,0,1,1,98.71-51.33Z"/><path class="cls-2" d="M125.39,62.69a61.86,61.86,0,0,0-.45-7.49L82.74,13,74.16,31.62l-2.09,8.19L49.48,16.67l-3.93,5.21L60,51.15l10.07-3.53L65.39,65.86l17.18,44.06c10.65-1.2,16.11,4.12,16.14,4.1A62.63,62.63,0,0,0,125.39,62.69Z"/><path class="cls-3" d="M62.69,125.39a62.44,62.44,0,0,0,36-11.37,46.29,46.29,0,0,0-1.28-5.73c-.89-.59-2-1.56-1.57-4.58a45.55,45.55,0,0,0-3.43-6.8c-1,0-2-.93-2.05-3-6.72-9.08-16.63-14.82-27.69-14.82S41.73,84.79,35,93.87c-.31,1.8-1.41,3.11-2,3a45.35,45.35,0,0,0-3.44,6.82A7.09,7.09,0,0,1,28,108.29,46.29,46.29,0,0,0,26.68,114,62.43,62.43,0,0,0,62.69,125.39Z"/><path class="cls-4" d="M72.22,32.47c-.39-1-4.53-10.87,8.28-19.7a1.75,1.75,0,0,1,2.24.22c2.32,2.42,7.55,8.75,5,14.44-3.3,7.2-12.06,14.16-14.2,8.21C72.83,33.82,72.61,33.49,72.22,32.47Z"/><path class="cls-5" d="M72.94,33.45c-.26-.68-3.09-7.5,5.7-13.6a1.19,1.19,0,0,1,1.53.15c1.59,1.67,5.18,6,3.39,10-2.27,5-8.28,9.78-9.75,5.68C73.37,34.38,73.21,34.15,72.94,33.45Z"/><path class="cls-4" d="M53.17,32.47c.38-1,4.53-10.87-8.28-19.7a1.75,1.75,0,0,0-2.24.22c-2.32,2.42-7.55,8.75-4.95,14.44,3.3,7.2,12,14.16,14.2,8.21C52.56,33.82,52.78,33.49,53.17,32.47Z"/><path class="cls-5" d="M52.44,33.45c.27-.68,3.1-7.5-5.69-13.6a1.19,1.19,0,0,0-1.53.15c-1.59,1.67-5.18,6-3.39,10,2.27,5,8.28,9.78,9.75,5.68C52,34.38,52.18,34.15,52.44,33.45Z"/><path class="cls-4" d="M81.06,66.83a81.65,81.65,0,0,1-.62,10.07c-.74.19-.74,1.91-.34,2.42-2.46,15.38-9.32,26.45-17.41,26.45s-14.92-11-17.39-26.39c.46-.71.52-2.38-.35-2.48a81.65,81.65,0,0,1-.62-10.07c0-1.52,0-3,.07-4.48.67-.39.67-1,.08-2,.08-1.65.2-3.27.35-4.85.56-.4,1.08-1.47.33-3,.3-2.28.68-4.45,1.15-6.49,1.1.5,1.78-1.81,1.66-5.67a29.59,29.59,0,0,1,2.28-4.83c1.18-.08,2.83-1.16,3.86-4.63a13.71,13.71,0,0,1,17.12,0c1.07,2.61,2.69,4.39,3.91,4.67a29.59,29.59,0,0,1,2.28,4.83c-.17,3.39.45,5,1.65,5.63.48,2,.86,4.24,1.16,6.53-.66,1.75-.34,2.75.33,3,.15,1.58.27,3.2.35,4.85-1,1-.44,1.48.08,2C81,63.82,81.06,65.31,81.06,66.83Z"/><path class="cls-6" d="M54.1,55a2.5,2.5,0,1,1-2.49-2.5A2.5,2.5,0,0,1,54.1,55Z"/><circle class="cls-7" cx="52.47" cy="54.08" r="1.27"/><path class="cls-6" d="M76.06,55a2.5,2.5,0,1,1-2.5-2.5A2.5,2.5,0,0,1,76.06,55Z"/><circle class="cls-7" cx="74.43" cy="54.08" r="1.27"/><path class="cls-5" d="M62.69,120.56c13.49,0,25-9.8,29.73-23.67-.64-1-1.32-2-2-3-5.54,11.19-15.86,18.73-27.69,18.73S40.54,105.06,35,93.87c-.72,1-1.4,2-2,3C37.67,110.76,49.2,120.56,62.69,120.56Z"/><path class="cls-5" d="M62.69,26.52a352.28,352.28,0,0,1,0,70.39A353.78,353.78,0,0,1,62.69,26.52Z"/><path class="cls-5" d="M58.87,82.38a.54.54,0,0,0,1.06-.11c.82-9.71-6.27-18.92-15.45-21.87,0,.66-.06,1.31-.08,2A36.37,36.37,0,0,1,58.87,82.38Z"/><path class="cls-5" d="M56.6,82.78c.43.33,1,0,.87-.47-1.9-5.22-8.58-8.93-12.52-5.42.1.83.22,1.65.35,2.46C49.77,77.83,52.71,79.85,56.6,82.78Z"/><path class="cls-5" d="M49.46,49.74a.54.54,0,0,0,.8-.65A55.06,55.06,0,0,1,48,40.37,45.76,45.76,0,0,0,46.31,46,9.35,9.35,0,0,0,49.46,49.74Z"/><path class="cls-5" d="M51.82,41.51a.55.55,0,0,0,1-.31,68.43,68.43,0,0,1,1.35-10.33,17.7,17.7,0,0,0-3.91,4.66A10,10,0,0,0,51.82,41.51Z"/><path class="cls-5" d="M47.69,55.5a33.92,33.92,0,0,1-2.53-3c-.12,1-.24,2-.33,3a8.35,8.35,0,0,0,2.38.85A.54.54,0,0,0,47.69,55.5Z"/><path class="cls-5" d="M64.51,29.76c1.6,5,3.16,10.17,3.52,15.3h0c-.88,6.51-3.67,12.71-4.69,19.26-.26,1.7-.48,3.41-.65,5.13-.16-1.72-.38-3.43-.64-5.13-1-6.55-3.81-12.75-4.69-19.26h0c.36-5.13,1.92-10.27,3.52-15.3a.54.54,0,0,0-1-.4c-2.59,5.31-5,11.25-4.67,16.62.41,8,4.53,16.35,5.71,24.41.48,3.28.84,6.57,1.16,9.88a.63.63,0,0,0,1.23,0c.32-3.31.68-6.6,1.16-9.88C65.65,62.33,69.77,54,70.18,46c.28-5.37-2.08-11.31-4.67-16.62A.54.54,0,0,0,64.51,29.76Z"/><path class="cls-5" d="M65.46,82.27a.54.54,0,0,0,1.05.11A36.43,36.43,0,0,1,81,62.38c0-.67,0-1.32-.08-2C71.73,63.35,64.63,72.56,65.46,82.27Z"/><path class="cls-5" d="M67.92,82.31c-.18.51.44.8.87.47,3.89-2.93,6.83-5,11.3-3.43.13-.81.25-1.63.35-2.46C76.5,73.38,69.82,77.09,67.92,82.31Z"/><path class="cls-5" d="M75.93,49.74A9.25,9.25,0,0,0,79.07,46a44.11,44.11,0,0,0-1.66-5.64,56.16,56.16,0,0,1-2.28,8.72A.54.54,0,0,0,75.93,49.74Z"/><path class="cls-5" d="M73.57,41.51a10,10,0,0,0,1.57-6,17.7,17.7,0,0,0-3.91-4.66A68.43,68.43,0,0,1,72.58,41.2.55.55,0,0,0,73.57,41.51Z"/><path class="cls-5" d="M78.18,56.41a8.35,8.35,0,0,0,2.38-.85c-.09-1-.21-2-.33-3a35.73,35.73,0,0,1-2.53,3A.54.54,0,0,0,78.18,56.41Z"/><path class="cls-8" d="M62.69,81.26A14.65,14.65,0,0,0,48.74,92.15c3.37,8.34,5.1,13.62,13.95,13.62s10.59-5.28,14-13.62A14.65,14.65,0,0,0,62.69,81.26Z"/><path class="cls-8" d="M62.69,32h0c-1.54,0-2.94-.65-3.11-1.52l-1.86-9.15c-.53-2.62,1.66-5.21,5-5.21h0c3.32,0,5.51,2.59,5,5.21l-1.86,9.15C65.64,31.39,64.24,32,62.69,32Z"/><path class="cls-5" d="M80.91,122.7a62.24,62.24,0,0,0,13-5.61,46.74,46.74,0,0,0,3.54-8.81,48.18,48.18,0,0,0-1.57-4.57A41.37,41.37,0,0,1,80.91,122.7Z"/><path class="cls-5" d="M29.53,103.71A48.18,48.18,0,0,0,28,108.28a46.08,46.08,0,0,0,3.54,8.81,62.24,62.24,0,0,0,13,5.61A41.3,41.3,0,0,1,29.53,103.71Z"/><path class="cls-9" d="M57.71,92.41c1.41,1.15,1.68,3.26,1.28,3.72s-1.22-1-2.68-2.16S53.57,92.32,54,91.85,56.3,91.27,57.71,92.41Z"/><path class="cls-9" d="M67.68,92.41c-1.41,1.15-1.68,3.26-1.29,3.72s1.23-1,2.69-2.16,2.74-1.65,2.35-2.12S69.09,91.27,67.68,92.41Z"/></g></g></g></svg>